<mxfile host="app.diagrams.net" agent="Mozilla/5.0 (Macintosh; Intel Mac OS X 10_15_7) AppleWebKit/605.1.15 (KHTML, like Gecko) Version/17.5 Safari/605.1.15" version="24.7.12">
  <diagram name="第 1 页" id="5klusX7bcSKgV-_HhoXc">
    <mxGraphModel dx="1833" dy="1215" grid="1" gridSize="10" guides="1" tooltips="1" connect="1" arrows="1" fold="1" page="1" pageScale="1" pageWidth="827" pageHeight="1169" math="1" shadow="0">
      <root>
        <mxCell id="0" />
        <mxCell id="1" parent="0" />
        <mxCell id="fb4e6AdWu1gKETjJjs_l-1" value="$$t_1$$&lt;span class=&quot;eusoft-eudic-chrome-extension-translate-content&quot;&gt;&lt;/span&gt;" style="rounded=1;whiteSpace=wrap;html=1;fontSize=24;fontFamily=Comic Sans MS;fillColor=#dae8fc;strokeColor=#6c8ebf;strokeWidth=2;" parent="1" vertex="1">
          <mxGeometry x="330" y="400.5" width="60" height="40" as="geometry" />
        </mxCell>
        <mxCell id="fb4e6AdWu1gKETjJjs_l-12" style="edgeStyle=orthogonalEdgeStyle;rounded=0;orthogonalLoop=1;jettySize=auto;html=1;entryX=0.5;entryY=1;entryDx=0;entryDy=0;exitX=0.5;exitY=0;exitDx=0;exitDy=0;strokeWidth=2;curved=1;" parent="1" source="fb4e6AdWu1gKETjJjs_l-2" target="fb4e6AdWu1gKETjJjs_l-1" edge="1">
          <mxGeometry relative="1" as="geometry" />
        </mxCell>
        <mxCell id="fb4e6AdWu1gKETjJjs_l-2" value="$$t_2$$&lt;span class=&quot;eusoft-eudic-chrome-extension-translate-content&quot;&gt;&lt;/span&gt;" style="rounded=1;whiteSpace=wrap;html=1;fontSize=24;fontFamily=Comic Sans MS;fillColor=#f8cecc;strokeColor=#b85450;strokeWidth=2;" parent="1" vertex="1">
          <mxGeometry x="270" y="485" width="60" height="40" as="geometry" />
        </mxCell>
        <mxCell id="fb4e6AdWu1gKETjJjs_l-15" value="" style="edgeStyle=orthogonalEdgeStyle;rounded=0;orthogonalLoop=1;jettySize=auto;html=1;curved=1;strokeWidth=2;" parent="1" source="fb4e6AdWu1gKETjJjs_l-4" target="fb4e6AdWu1gKETjJjs_l-2" edge="1">
          <mxGeometry relative="1" as="geometry" />
        </mxCell>
        <mxCell id="fb4e6AdWu1gKETjJjs_l-4" value="$$t_3$$" style="rounded=1;whiteSpace=wrap;html=1;fontSize=24;fontFamily=Comic Sans MS;fillColor=#fff2cc;strokeColor=#d6b656;strokeWidth=2;" parent="1" vertex="1">
          <mxGeometry x="270" y="565" width="60" height="40" as="geometry" />
        </mxCell>
        <mxCell id="fb4e6AdWu1gKETjJjs_l-13" style="edgeStyle=orthogonalEdgeStyle;rounded=0;orthogonalLoop=1;jettySize=auto;html=1;exitX=0.5;exitY=0;exitDx=0;exitDy=0;entryX=0.5;entryY=1;entryDx=0;entryDy=0;strokeWidth=2;curved=1;" parent="1" source="fb4e6AdWu1gKETjJjs_l-11" target="fb4e6AdWu1gKETjJjs_l-1" edge="1">
          <mxGeometry relative="1" as="geometry" />
        </mxCell>
        <mxCell id="fb4e6AdWu1gKETjJjs_l-14" style="edgeStyle=orthogonalEdgeStyle;rounded=0;orthogonalLoop=1;jettySize=auto;html=1;entryX=1;entryY=0.5;entryDx=0;entryDy=0;strokeWidth=2;curved=1;" parent="1" source="fb4e6AdWu1gKETjJjs_l-11" target="fb4e6AdWu1gKETjJjs_l-2" edge="1">
          <mxGeometry relative="1" as="geometry" />
        </mxCell>
        <mxCell id="fb4e6AdWu1gKETjJjs_l-11" value="$$t_4$$" style="rounded=1;whiteSpace=wrap;html=1;fontSize=24;fontFamily=Comic Sans MS;fillColor=#fff2cc;strokeColor=#d6b656;strokeWidth=2;" parent="1" vertex="1">
          <mxGeometry x="380" y="565" width="60" height="40" as="geometry" />
        </mxCell>
        <mxCell id="fb4e6AdWu1gKETjJjs_l-24" value="1" style="ellipse;whiteSpace=wrap;html=1;fontSize=24;fontFamily=Times New Roman;fillColor=#dae8fc;strokeColor=#6c8ebf;" parent="1" vertex="1">
          <mxGeometry x="480" y="400.5" width="40" height="40" as="geometry" />
        </mxCell>
        <mxCell id="fb4e6AdWu1gKETjJjs_l-26" value="2" style="ellipse;whiteSpace=wrap;html=1;fontSize=24;fontFamily=Times New Roman;fillColor=#f8cecc;strokeColor=#b85450;" parent="1" vertex="1">
          <mxGeometry x="480" y="480" width="40" height="40" as="geometry" />
        </mxCell>
        <mxCell id="fb4e6AdWu1gKETjJjs_l-27" value="3" style="ellipse;whiteSpace=wrap;html=1;fontSize=24;fontFamily=Times New Roman;fillColor=#fff2cc;strokeColor=#d6b656;" parent="1" vertex="1">
          <mxGeometry x="480" y="565" width="40" height="40" as="geometry" />
        </mxCell>
        <mxCell id="pUeGN0KHuNEm9AJB9LLj-2" style="edgeStyle=orthogonalEdgeStyle;rounded=0;orthogonalLoop=1;jettySize=auto;html=1;entryX=0;entryY=0.5;entryDx=0;entryDy=0;" edge="1" parent="1" source="pUeGN0KHuNEm9AJB9LLj-1" target="fb4e6AdWu1gKETjJjs_l-1">
          <mxGeometry relative="1" as="geometry" />
        </mxCell>
        <mxCell id="pUeGN0KHuNEm9AJB9LLj-1" value="$$S_1$$" style="strokeWidth=2;html=1;shape=mxgraph.flowchart.multi-document;whiteSpace=wrap;fontSize=24;fillColor=#ffe6cc;strokeColor=#d79b00;" vertex="1" parent="1">
          <mxGeometry x="160" y="395.5" width="58" height="50" as="geometry" />
        </mxCell>
        <mxCell id="pUeGN0KHuNEm9AJB9LLj-6" value="" style="edgeStyle=orthogonalEdgeStyle;rounded=0;orthogonalLoop=1;jettySize=auto;html=1;" edge="1" parent="1" source="pUeGN0KHuNEm9AJB9LLj-3" target="fb4e6AdWu1gKETjJjs_l-2">
          <mxGeometry relative="1" as="geometry" />
        </mxCell>
        <mxCell id="pUeGN0KHuNEm9AJB9LLj-3" value="$$S_2$$" style="strokeWidth=2;html=1;shape=mxgraph.flowchart.multi-document;whiteSpace=wrap;fontSize=24;fillColor=#ffe6cc;strokeColor=#d79b00;" vertex="1" parent="1">
          <mxGeometry x="160" y="480" width="58" height="50" as="geometry" />
        </mxCell>
        <mxCell id="pUeGN0KHuNEm9AJB9LLj-7" value="" style="edgeStyle=orthogonalEdgeStyle;rounded=0;orthogonalLoop=1;jettySize=auto;html=1;" edge="1" parent="1" source="pUeGN0KHuNEm9AJB9LLj-4" target="fb4e6AdWu1gKETjJjs_l-4">
          <mxGeometry relative="1" as="geometry" />
        </mxCell>
        <mxCell id="pUeGN0KHuNEm9AJB9LLj-4" value="$$S_3$$" style="strokeWidth=2;html=1;shape=mxgraph.flowchart.multi-document;whiteSpace=wrap;fontSize=24;fillColor=#ffe6cc;strokeColor=#d79b00;" vertex="1" parent="1">
          <mxGeometry x="160" y="560" width="58" height="50" as="geometry" />
        </mxCell>
        <mxCell id="pUeGN0KHuNEm9AJB9LLj-8" style="edgeStyle=orthogonalEdgeStyle;rounded=0;orthogonalLoop=1;jettySize=auto;html=1;entryX=0.5;entryY=1;entryDx=0;entryDy=0;" edge="1" parent="1" source="pUeGN0KHuNEm9AJB9LLj-5" target="fb4e6AdWu1gKETjJjs_l-11">
          <mxGeometry relative="1" as="geometry" />
        </mxCell>
        <mxCell id="pUeGN0KHuNEm9AJB9LLj-5" value="$$S_4$$" style="strokeWidth=2;html=1;shape=mxgraph.flowchart.multi-document;whiteSpace=wrap;fontSize=24;fillColor=#ffe6cc;strokeColor=#d79b00;" vertex="1" parent="1">
          <mxGeometry x="160" y="630" width="58" height="50" as="geometry" />
        </mxCell>
        <mxCell id="pUeGN0KHuNEm9AJB9LLj-9" value="测试用例" style="text;html=1;align=center;verticalAlign=middle;whiteSpace=wrap;rounded=0;fontSize=24;" vertex="1" parent="1">
          <mxGeometry x="300" y="340" width="120" height="30" as="geometry" />
        </mxCell>
        <mxCell id="pUeGN0KHuNEm9AJB9LLj-10" value="状态子集" style="text;html=1;align=center;verticalAlign=middle;whiteSpace=wrap;rounded=0;fontSize=24;" vertex="1" parent="1">
          <mxGeometry x="129" y="340" width="120" height="30" as="geometry" />
        </mxCell>
        <mxCell id="pUeGN0KHuNEm9AJB9LLj-11" value="执行顺序" style="text;html=1;align=center;verticalAlign=middle;whiteSpace=wrap;rounded=0;fontSize=24;" vertex="1" parent="1">
          <mxGeometry x="440" y="340" width="120" height="30" as="geometry" />
        </mxCell>
        <mxCell id="pUeGN0KHuNEm9AJB9LLj-12" value="" style="endArrow=none;dashed=1;html=1;strokeWidth=2;rounded=0;" edge="1" parent="1">
          <mxGeometry width="50" height="50" relative="1" as="geometry">
            <mxPoint x="248" y="710" as="sourcePoint" />
            <mxPoint x="248" y="320" as="targetPoint" />
          </mxGeometry>
        </mxCell>
        <mxCell id="pUeGN0KHuNEm9AJB9LLj-13" value="" style="endArrow=none;dashed=1;html=1;strokeWidth=2;rounded=0;" edge="1" parent="1">
          <mxGeometry width="50" height="50" relative="1" as="geometry">
            <mxPoint x="450" y="710" as="sourcePoint" />
            <mxPoint x="450" y="320" as="targetPoint" />
          </mxGeometry>
        </mxCell>
      </root>
    </mxGraphModel>
  </diagram>
</mxfile>
